<svg width="16" height="16" viewBox="0 0 16 16" fill="none" xmlns="http://www.w3.org/2000/svg">
<path d="M13.7538 11.0588C13.4 10.45 12.8744 8.73312 12.8744 6.5C12.8744 5.20707 12.3608 3.96709 11.4466 3.05285C10.5323 2.13861 9.29234 1.625 7.99941 1.625C6.70648 1.625 5.4665 2.13861 4.55226 3.05285C3.63802 3.96709 3.12441 5.20707 3.12441 6.5C3.12441 8.73375 2.59816 10.45 2.24441 11.0588C2.16679 11.1917 2.1256 11.3427 2.12501 11.4966C2.12441 11.6505 2.16442 11.8019 2.241 11.9354C2.31758 12.0689 2.42802 12.1798 2.56118 12.257C2.69433 12.3342 2.84549 12.3749 2.99941 12.375H5.65441C5.74549 12.9309 6.0312 13.4363 6.46053 13.8011C6.88985 14.1658 7.43483 14.366 7.99816 14.366C8.56148 14.366 9.10646 14.1658 9.53579 13.8011C9.96511 13.4363 10.2508 12.9309 10.3419 12.375H12.9994C13.1532 12.3747 13.3042 12.3338 13.4372 12.2565C13.5702 12.1793 13.6804 12.0683 13.7569 11.9348C13.8333 11.8014 13.8732 11.6501 13.8726 11.4963C13.8719 11.3425 13.8307 11.1916 13.7532 11.0588H13.7538ZM7.99941 13.625C7.63372 13.6249 7.27877 13.5014 6.99194 13.2746C6.7051 13.0478 6.50317 12.7308 6.41878 12.375H9.58003C9.49564 12.7308 9.29371 13.0478 9.00688 13.2746C8.72005 13.5014 8.36509 13.6249 7.99941 13.625ZM13.1063 11.5625C13.096 11.5816 13.0806 11.5976 13.0619 11.6086C13.0432 11.6196 13.0218 11.6253 13 11.625H2.99941C2.97767 11.6253 2.95627 11.6196 2.93754 11.6086C2.9188 11.5976 2.90345 11.5816 2.89316 11.5625C2.88218 11.5435 2.87641 11.5219 2.87641 11.5C2.87641 11.4781 2.88218 11.4565 2.89316 11.4375C3.36628 10.625 3.87441 8.73062 3.87441 6.5C3.87441 5.40598 4.309 4.35677 5.08259 3.58318C5.85618 2.8096 6.90539 2.375 7.99941 2.375C9.09342 2.375 10.1426 2.8096 10.9162 3.58318C11.6898 4.35677 12.1244 5.40598 12.1244 6.5C12.1244 8.73 12.6332 10.6219 13.1063 11.4375C13.1173 11.4565 13.123 11.4781 13.123 11.5C13.123 11.5219 13.1173 11.5435 13.1063 11.5625Z" fill="currentColor"/>
</svg>
