<svg width="24" height="24" viewBox="0 0 24 24" fill="currentColor" xmlns="http://www.w3.org/2000/svg">
<path d="M12 6C12.3978 6 12.7794 5.84196 13.0607 5.56066C13.342 5.27936 13.5 4.89782 13.5 4.5C13.5 3.672 12 2 12 2C12 2 10.5 3.672 10.5 4.5C10.5 4.89782 10.658 5.27936 10.9393 5.56066C11.2206 5.84196 11.6022 6 12 6ZM12 6V9M5 14L5.52 16.58C6.045 19.177 6.308 20.475 7.196 21.238C8.085 22 9.336 22 11.839 22H12.161C14.664 22 15.915 22 16.804 21.238C17.693 20.475 17.954 19.177 18.479 16.58L19 14M17.667 14C19.231 14 20.5 12.88 20.5 11.5C20.5 10.12 19.232 9 17.667 9H6.333C4.77 9 3.5 10.12 3.5 11.5C3.5 12.88 4.769 14 6.333 14C7.704 14 8.904 13.141 9.167 12C9.429 13.141 10.629 14 12 14C13.37 14 14.57 13.141 14.833 12C15.096 13.141 16.296 14 17.667 14Z" stroke="currentColor" stroke-width="1.5" stroke-linecap="round" stroke-linejoin="round"/>
</svg>
