<svg width="20" height="20" viewBox="0 0 20 20" fill="none" xmlns="http://www.w3.org/2000/svg">
<path d="M6 5C6 4.73478 6.10536 4.48043 6.29289 4.29289C6.48043 4.10536 6.73478 4 7 4H13C13.2652 4 13.5196 4.10536 13.7071 4.29289C13.8946 4.48043 14 4.73478 14 5V6C14 6.26522 13.8946 6.51957 13.7071 6.70711C13.5196 6.89464 13.2652 7 13 7H7C6.73478 7 6.48043 6.89464 6.29289 6.70711C6.10536 6.51957 6 6.26522 6 6V5ZM7 5V6H13V5H7ZM4 4V16C4 16.5304 4.21071 17.0391 4.58579 17.4142C4.96086 17.7893 5.46957 18 6 18H10.257C10.0023 17.6916 9.78198 17.3562 9.6 17H6C5.73478 17 5.48043 16.8946 5.29289 16.7071C5.10536 16.5196 5 16.2652 5 16H9.207C9.11458 15.6731 9.05265 15.3383 9.022 15H5V4C5 3.73478 5.10536 3.48043 5.29289 3.29289C5.48043 3.10536 5.73478 3 6 3H14C14.2652 3 14.5196 3.10536 14.7071 3.29289C14.8946 3.48043 15 3.73478 15 4V9.022C15.344 9.05333 15.6773 9.115 16 9.207V4C16 3.46957 15.7893 2.96086 15.4142 2.58579C15.0391 2.21071 14.5304 2 14 2H6C5.46957 2 4.96086 2.21071 4.58579 2.58579C4.21071 2.96086 4 3.46957 4 4ZM19 14.5C19 15.6935 18.5259 16.8381 17.682 17.682C16.8381 18.5259 15.6935 19 14.5 19C13.3065 19 12.1619 18.5259 11.318 17.682C10.4741 16.8381 10 15.6935 10 14.5C10 13.3065 10.4741 12.1619 11.318 11.318C12.1619 10.4741 13.3065 10 14.5 10C15.6935 10 16.8381 10.4741 17.682 11.318C18.5259 12.1619 19 13.3065 19 14.5ZM16.354 13.354C16.4479 13.2601 16.5006 13.1328 16.5006 13C16.5006 12.8672 16.4479 12.7399 16.354 12.646C16.2601 12.5521 16.1328 12.4994 16 12.4994C15.8672 12.4994 15.7399 12.5521 15.646 12.646L14.5 13.793L13.354 12.646C13.2601 12.5521 13.1328 12.4994 13 12.4994C12.8672 12.4994 12.7399 12.5521 12.646 12.646C12.5521 12.7399 12.4994 12.8672 12.4994 13C12.4994 13.1328 12.5521 13.2601 12.646 13.354L13.793 14.5L12.646 15.646C12.5995 15.6925 12.5626 15.7477 12.5375 15.8084C12.5123 15.8692 12.4994 15.9343 12.4994 16C12.4994 16.0657 12.5123 16.1308 12.5375 16.1916C12.5626 16.2523 12.5995 16.3075 12.646 16.354C12.6925 16.4005 12.7477 16.4374 12.8084 16.4625C12.8692 16.4877 12.9343 16.5006 13 16.5006C13.0657 16.5006 13.1308 16.4877 13.1916 16.4625C13.2523 16.4374 13.3075 16.4005 13.354 16.354L14.5 15.207L15.646 16.354C15.6925 16.4005 15.7477 16.4374 15.8084 16.4625C15.8692 16.4877 15.9343 16.5006 16 16.5006C16.0657 16.5006 16.1308 16.4877 16.1916 16.4625C16.2523 16.4374 16.3075 16.4005 16.354 16.354C16.4005 16.3075 16.4374 16.2523 16.4625 16.1916C16.4877 16.1308 16.5006 16.0657 16.5006 16C16.5006 15.9343 16.4877 15.8692 16.4625 15.8084C16.4374 15.7477 16.4005 15.6925 16.354 15.646L15.207 14.5L16.354 13.354Z" fill="black"/>
</svg>
