<svg width="24" height="24" viewBox="0 0 24 24" fill="none" xmlns="http://www.w3.org/2000/svg">
<path d="M18.4375 4.95334H16.4995V3.54534C16.4995 3.28334 16.2695 3.03334 15.9995 3.04534C15.8677 3.0479 15.742 3.1014 15.6488 3.19462C15.5556 3.28784 15.5021 3.41353 15.4995 3.54534V4.95334H8.49952V3.54534C8.49952 3.28334 8.26952 3.03334 7.99952 3.04534C7.86772 3.0479 7.74202 3.1014 7.6488 3.19462C7.55558 3.28784 7.50208 3.41353 7.49952 3.54534V4.95334H5.56152C4.89873 4.95413 4.2633 5.21778 3.79463 5.68645C3.32596 6.15512 3.06232 6.79054 3.06152 7.45334V18.4533C3.06152 19.8323 4.18352 20.9533 5.56152 20.9533H18.4365C19.8155 20.9533 20.9365 19.8323 20.9365 18.4533V7.45334C20.9365 6.79047 20.6733 6.15474 20.2046 5.68592C19.736 5.21711 19.1004 4.9536 18.4375 4.95334ZM5.56152 5.95334H7.49952V6.54534C7.49952 6.80734 7.72952 7.05734 7.99952 7.04534C8.27052 7.03334 8.49952 6.82534 8.49952 6.54534V5.95334H15.4995V6.54534C15.4995 6.80734 15.7295 7.05734 15.9995 7.04534C16.2705 7.03334 16.4995 6.82534 16.4995 6.54534V5.95334H18.4365C19.2635 5.95334 19.9365 6.62634 19.9365 7.45334V9.03734H4.06152V7.45334C4.06152 6.62634 4.73452 5.95334 5.56152 5.95334ZM18.4375 19.9533H5.56152C4.73452 19.9533 4.06152 19.2803 4.06152 18.4533V10.0373H19.9365V18.4533C19.9365 18.851 19.7786 19.2324 19.4975 19.5136C19.2164 19.7949 18.8352 19.9531 18.4375 19.9533Z" fill="currentColor"/>
</svg>
