<svg width="28" height="20" viewBox="0 0 28 20" fill="none" xmlns="http://www.w3.org/2000/svg">
<path d="M26 11C24.4167 8.54167 22.4323 6.70312 20.0469 5.48438C20.6823 6.56771 21 7.73958 21 9C21 10.9271 20.3151 12.5755 18.9453 13.9453C17.5755 15.3151 15.9271 16 14 16C12.0729 16 10.4245 15.3151 9.05469 13.9453C7.6849 12.5755 7 10.9271 7 9C7 7.73958 7.31771 6.56771 7.95312 5.48438C5.56771 6.70312 3.58333 8.54167 2 11C3.38542 13.1354 5.1224 14.8359 7.21094 16.1016C9.29948 17.3672 11.5625 18 14 18C16.4375 18 18.7005 17.3672 20.7891 16.1016C22.8776 14.8359 24.6146 13.1354 26 11ZM14.75 5C14.75 4.79167 14.6771 4.61458 14.5312 4.46875C14.3854 4.32292 14.2083 4.25 14 4.25C12.6979 4.25 11.5807 4.71615 10.6484 5.64844C9.71615 6.58073 9.25 7.69792 9.25 9C9.25 9.20833 9.32292 9.38542 9.46875 9.53125C9.61458 9.67708 9.79167 9.75 10 9.75C10.2083 9.75 10.3854 9.67708 10.5312 9.53125C10.6771 9.38542 10.75 9.20833 10.75 9C10.75 8.10417 11.0677 7.33854 11.7031 6.70312C12.3385 6.06771 13.1042 5.75 14 5.75C14.2083 5.75 14.3854 5.67708 14.5312 5.53125C14.6771 5.38542 14.75 5.20833 14.75 5ZM28 11C28 11.3542 27.8958 11.7135 27.6875 12.0781C26.2292 14.474 24.2682 16.3932 21.8047 17.8359C19.3411 19.2786 16.7396 20 14 20C11.2604 20 8.65885 19.276 6.19531 17.8281C3.73177 16.3802 1.77083 14.4635 0.3125 12.0781C0.104167 11.7135 0 11.3542 0 11C0 10.6458 0.104167 10.2865 0.3125 9.92188C1.77083 7.53646 3.73177 5.61979 6.19531 4.17188C8.65885 2.72396 11.2604 2 14 2C16.7396 2 19.3411 2.72396 21.8047 4.17188C24.2682 5.61979 26.2292 7.53646 27.6875 9.92188C27.8958 10.2865 28 10.6458 28 11Z" fill="black"/>
</svg>
