<svg width="14" height="14" viewBox="0 0 14 14" fill="none" xmlns="http://www.w3.org/2000/svg">
<path d="M7 8.75051C7.828 8.75051 8.5 8.08351 8.5 7.26051C8.5 6.43751 7.828 5.77051 7 5.77051C6.172 5.77051 5.5 6.43751 5.5 7.26051C5.5 8.08351 6.172 8.75051 7 8.75051Z" stroke="black" stroke-linecap="round" stroke-linejoin="round"/>
<path d="M13.3702 5.34032C13.1575 4.69354 12.6969 4.15759 12.0894 3.85011C11.482 3.54263 10.7773 3.48876 10.1302 3.70032C9.89917 3.76578 9.67985 3.86701 9.48017 4.00032C9.59033 3.61625 9.60978 3.21184 9.53699 2.81896C9.4642 2.42609 9.30115 2.05549 9.06071 1.73638C8.82026 1.41727 8.50898 1.15837 8.1514 0.980076C7.79383 0.801786 7.39973 0.708984 7.00017 0.708984C6.60061 0.708984 6.20651 0.801786 5.84893 0.980076C5.49135 1.15837 5.18007 1.41727 4.93963 1.73638C4.69918 2.05549 4.53613 2.42609 4.46334 2.81896C4.39055 3.21184 4.41 3.61625 4.52017 4.00032C4.32112 3.8635 4.10177 3.75888 3.87017 3.69032C3.5504 3.58592 3.2132 3.54552 2.87782 3.57144C2.54244 3.59736 2.21544 3.68908 1.91551 3.84137C1.61558 3.99365 1.34858 4.20353 1.12975 4.459C0.910928 4.71448 0.744567 5.01055 0.640166 5.33032C0.535765 5.65009 0.495369 5.98729 0.521286 6.32267C0.547202 6.65805 0.638923 6.98504 0.791211 7.28498C0.943499 7.58491 1.15337 7.85191 1.40885 8.07073C1.66432 8.28956 1.9604 8.45592 2.28017 8.56032C2.51439 8.62948 2.75618 8.66978 3.00017 8.68032C2.81379 8.82981 2.64593 9.00102 2.50017 9.19032C2.30107 9.46137 2.15778 9.76927 2.07863 10.0961C1.99947 10.423 1.98601 10.7623 2.03903 11.0945C2.09206 11.4266 2.21051 11.7448 2.38752 12.0308C2.56453 12.3168 2.79656 12.5647 3.07017 12.7603C3.62305 13.1599 4.31124 13.3252 4.98527 13.2203C5.65931 13.1155 6.26477 12.7489 6.67017 12.2003C6.81047 12.004 6.92163 11.7885 7.00017 11.5603C7.08217 11.7903 7.1955 12.0037 7.34017 12.2003C7.59125 12.5405 7.9218 12.814 8.30295 12.997C8.68409 13.18 9.10424 13.2669 9.52671 13.2502C9.94918 13.2334 10.3611 13.1135 10.7266 12.9008C11.092 12.6882 11.3998 12.3893 11.6232 12.0303C11.8896 11.5996 12.0212 11.0991 12.0011 10.593C11.981 10.087 11.81 9.59849 11.5102 9.19032C11.3644 9.00102 11.1965 8.82981 11.0102 8.68032C11.2508 8.66897 11.4892 8.62868 11.7202 8.56032C12.0406 8.4582 12.3376 8.2937 12.5942 8.07631C12.8508 7.85892 13.0618 7.59293 13.2152 7.29364C13.3685 6.99436 13.4612 6.6677 13.4878 6.33247C13.5144 5.99723 13.4744 5.66005 13.3702 5.34032Z" stroke="black" stroke-linecap="round" stroke-linejoin="round"/>
</svg>
