<svg width="16" height="16" viewBox="0 0 16 16" fill="none" xmlns="http://www.w3.org/2000/svg">
<path d="M10.5985 10.2406C10.9766 10.0375 11.4094 9.92188 11.8704 9.92188H11.8719C11.9188 9.92188 11.9407 9.86563 11.9063 9.83438C11.4269 9.40419 10.8794 9.05674 10.286 8.80625C10.2797 8.80312 10.2735 8.80156 10.2672 8.79844C11.2375 8.09375 11.8688 6.94844 11.8688 5.65625C11.8688 3.51562 10.1375 1.78125 8.0016 1.78125C5.86566 1.78125 4.13598 3.51562 4.13598 5.65625C4.13598 6.94844 4.76723 8.09375 5.7391 8.79844C5.73285 8.80156 5.7266 8.80312 5.72035 8.80625C5.02191 9.10156 4.39535 9.525 3.85629 10.0656C3.32033 10.6006 2.89365 11.2348 2.60004 11.9328C2.31115 12.6163 2.15524 13.3487 2.14066 14.0906C2.14025 14.1073 2.14317 14.1239 2.14927 14.1394C2.15536 14.1549 2.1645 14.1691 2.17615 14.181C2.1878 14.193 2.20172 14.2025 2.2171 14.2089C2.23247 14.2154 2.24898 14.2188 2.26566 14.2188H3.2016C3.26879 14.2188 3.32504 14.1641 3.3266 14.0969C3.35785 12.8906 3.84066 11.7609 4.69535 10.9047C5.57816 10.0188 6.75316 9.53125 8.00316 9.53125C8.8891 9.53125 9.7391 9.77656 10.4719 10.2359C10.4907 10.2478 10.5123 10.2544 10.5346 10.2553C10.5568 10.2561 10.5788 10.251 10.5985 10.2406ZM8.00316 8.34375C7.28754 8.34375 6.6141 8.06406 6.10629 7.55625C5.85644 7.30705 5.65836 7.01087 5.52348 6.68478C5.38859 6.35869 5.31956 6.00914 5.32035 5.65625C5.32035 4.93906 5.60004 4.26406 6.10629 3.75625C6.61254 3.24844 7.28598 2.96875 8.00316 2.96875C8.72035 2.96875 9.39223 3.24844 9.90004 3.75625C10.1499 4.00545 10.348 4.30163 10.4829 4.62772C10.6177 4.95381 10.6868 5.30336 10.686 5.65625C10.686 6.37344 10.4063 7.04844 9.90004 7.55625C9.39223 8.06406 8.71879 8.34375 8.00316 8.34375ZM13.75 12.0625H10C9.93129 12.0625 9.87504 12.1187 9.87504 12.1875V13.0625C9.87504 13.1313 9.93129 13.1875 10 13.1875H13.75C13.8188 13.1875 13.875 13.1313 13.875 13.0625V12.1875C13.875 12.1187 13.8188 12.0625 13.75 12.0625Z" fill="currentColor"/>
</svg>
