<svg width="20" height="20" viewBox="0 0 20 20" fill="none" xmlns="http://www.w3.org/2000/svg">
<path fill-rule="evenodd" clip-rule="evenodd" d="M3.64599 2.49071C3.40411 2.38199 3.12895 2.3738 2.88103 2.46794C2.63312 2.56208 2.43274 2.75084 2.32399 2.99271L0.160988 7.79571C0.0521435 8.03734 0.0436656 8.3123 0.137417 8.56018C0.231169 8.80805 0.419482 9.00858 0.660988 9.11771L2.15099 9.78871C2.27069 9.84276 2.39986 9.8727 2.53113 9.87682C2.6624 9.88095 2.7932 9.85917 2.91605 9.81274C3.03891 9.76631 3.15141 9.69613 3.24715 9.60622C3.34288 9.51631 3.41996 9.40841 3.47399 9.28871L5.63699 4.48471C5.74583 4.24307 5.75431 3.96812 5.66056 3.72024C5.56681 3.47236 5.37849 3.27183 5.13699 3.16271L3.64599 2.49071ZM1.87299 8.41871C1.95454 8.45548 2.04253 8.47582 2.13195 8.47859C2.22136 8.48135 2.31045 8.46647 2.39411 8.43481C2.47778 8.40315 2.55439 8.35531 2.61957 8.29404C2.68475 8.23277 2.73722 8.15926 2.77399 8.07771C2.81076 7.99616 2.83111 7.90816 2.83387 7.81875C2.83663 7.72933 2.82176 7.64025 2.79009 7.55658C2.75843 7.47292 2.71059 7.39631 2.64932 7.33113C2.58805 7.26595 2.51454 7.21348 2.43299 7.17671C2.26829 7.10245 2.08084 7.09665 1.91186 7.1606C1.74289 7.22455 1.60625 7.35301 1.53199 7.51771C1.45773 7.68241 1.45194 7.86986 1.51588 8.03883C1.57983 8.2078 1.70829 8.34445 1.87299 8.41871ZM19.015 9.24871C19.1378 9.2021 19.2502 9.13176 19.3458 9.04171C19.4414 8.95165 19.5183 8.84364 19.5722 8.72385C19.6261 8.60406 19.6558 8.47483 19.6597 8.34355C19.6636 8.21226 19.6416 8.08149 19.595 7.95871L17.73 3.03471C17.6835 2.91182 17.6132 2.79931 17.5232 2.70359C17.4332 2.60788 17.3252 2.53084 17.2054 2.47688C17.0856 2.42293 16.9563 2.39311 16.825 2.38913C16.6937 2.38515 16.5628 2.4071 16.44 2.45371L14.913 3.03271C14.7902 3.07931 14.6778 3.14965 14.5822 3.23971C14.4866 3.32976 14.4096 3.43777 14.3558 3.55756C14.3019 3.67736 14.2722 3.80658 14.2683 3.93787C14.2644 4.06915 14.2864 4.19992 14.333 4.32271L16.199 9.24771C16.2929 9.49565 16.4815 9.69613 16.7232 9.80508C16.9649 9.91403 17.24 9.92253 17.488 9.82871L19.015 9.24871ZM16.078 3.80371C15.9943 3.83542 15.9177 3.8833 15.8526 3.94461C15.7875 4.00593 15.735 4.07947 15.6983 4.16105C15.6616 4.24262 15.6413 4.33063 15.6386 4.42005C15.6358 4.50948 15.6508 4.59856 15.6825 4.68221C15.7142 4.76586 15.7621 4.84245 15.8234 4.90759C15.8847 4.97274 15.9583 5.02518 16.0398 5.0619C16.1214 5.09863 16.2094 5.11892 16.2988 5.12164C16.3883 5.12435 16.4773 5.10942 16.561 5.07771C16.7299 5.01366 16.8665 4.88512 16.9407 4.72037C17.0149 4.55562 17.0205 4.36815 16.9565 4.19921C16.8924 4.03026 16.7639 3.89368 16.5991 3.81951C16.4344 3.74534 16.2469 3.73966 16.078 3.80371Z" fill="black"/>
<path fill-rule="evenodd" clip-rule="evenodd" d="M14.8849 4.10827H14.8929C14.9583 4.10256 15.022 4.08401 15.0803 4.05368C15.1386 4.02335 15.1904 3.98183 15.2326 3.9315C15.2749 3.88117 15.3068 3.82302 15.3266 3.76035C15.3464 3.69768 15.3536 3.63173 15.3479 3.56627C15.3422 3.50081 15.3236 3.43711 15.2933 3.37881C15.263 3.32052 15.2214 3.26877 15.1711 3.22652C15.1208 3.18427 15.0626 3.15234 15 3.13257C14.9373 3.11279 14.8713 3.10556 14.8059 3.11127H14.7979L14.7719 3.11427L14.6749 3.12427L14.3219 3.15827C14.0249 3.18827 13.6139 3.23527 13.1599 3.29527C12.2649 3.41327 11.1559 3.59327 10.4299 3.83527C10.0779 3.95227 9.70589 4.17927 9.34989 4.43927C8.98889 4.70327 8.61489 5.02427 8.25689 5.35727C7.6215 5.95656 7.0145 6.58524 6.43789 7.24127C6.01889 7.71527 5.92189 8.47127 6.41389 9.00727C6.73389 9.35327 7.23389 9.79127 7.88189 9.98727C8.55889 10.1903 9.33889 10.1113 10.1359 9.51927L11.1349 8.87427L11.1529 8.86327C11.2959 8.95027 11.4949 9.10027 11.7329 9.29927C11.9929 9.51727 12.2749 9.77427 12.5379 10.0213C12.8364 10.3026 13.1298 10.5893 13.4179 10.8813L13.4729 10.9383L13.4869 10.9523L13.4919 10.9573L13.5509 11.0173L13.6259 11.0563C14.0289 11.2563 14.4719 11.1843 14.8159 11.0683C15.1739 10.9483 15.5299 10.7443 15.8329 10.5433C16.2123 10.288 16.5716 10.0042 16.9079 9.69427L16.9259 9.67827L16.9309 9.67327L16.9319 9.67227C16.9319 9.67227 16.8439 9.36227 16.4999 9.00027L16.2289 9.34027L15.9999 10.0013L13.4919 10.9573L13.9999 10.5013L13.7319 9.78427C13.5643 9.61918 13.3949 9.45584 13.2239 9.29427C12.9539 9.04027 12.6559 8.76927 12.3739 8.53427C12.1009 8.30427 11.8169 8.08627 11.5799 7.95627C11.1859 7.74027 10.7999 7.90027 10.5919 8.03527L9.56389 8.69927L9.54989 8.70927C8.99489 9.12527 8.53889 9.14127 8.16989 9.03027C7.76989 8.91027 7.41489 8.61827 7.14989 8.33027C7.06689 8.24027 7.04289 8.06727 7.18689 7.90427C7.74196 7.27233 8.32627 6.66667 8.93789 6.08927C9.27889 5.77227 9.62089 5.47927 9.93989 5.24627C10.2659 5.00827 10.5399 4.85327 10.7469 4.78427C11.3709 4.57627 12.3919 4.40527 13.2909 4.28627C13.7825 4.22167 14.2752 4.16599 14.7689 4.11927L14.8619 4.11027L14.8849 4.10827Z" fill="black"/>
<path d="M14.1269 10.1783C13.9963 10.0459 13.8647 9.91455 13.7319 9.78427L13.9999 10.5013L13.4919 10.9583L15.9999 10.0013L16.2289 9.34127L16.4999 9.00127L16.2449 8.94727L16.2419 8.94927L16.2279 8.96227L16.1739 9.01227C15.8925 9.26617 15.5935 9.49976 15.2789 9.71127C15.0089 9.89127 14.7359 10.0413 14.4959 10.1213C14.3099 10.1843 14.1939 10.1893 14.1269 10.1783Z" fill="black"/>
<path fill-rule="evenodd" clip-rule="evenodd" d="M5.04702 5.06937L4.85002 4.60937L4.65302 4.14937L4.69302 4.13337L4.80602 4.08538C5.36044 3.84997 5.91713 3.61996 6.47602 3.39538C6.92994 3.21222 7.38736 3.03786 7.84802 2.87238C8.05102 2.80038 8.24002 2.73837 8.39802 2.69337C8.53402 2.65337 8.70802 2.60938 8.85002 2.60938C8.98002 2.60938 9.11702 2.63937 9.23002 2.66937C9.35202 2.70237 9.48602 2.74638 9.62202 2.79638C9.89602 2.89638 10.205 3.02637 10.491 3.15237C10.8246 3.30145 11.1553 3.45681 11.483 3.61838L11.549 3.65037L11.567 3.65937L11.573 3.66237C11.6917 3.72165 11.782 3.82565 11.824 3.95148C11.866 4.07732 11.8563 4.21469 11.797 4.33337C11.7377 4.45206 11.6337 4.54234 11.5079 4.58434C11.3821 4.62635 11.2447 4.61665 11.126 4.55738L11.121 4.55437L11.105 4.54638L11.043 4.51637C10.7261 4.36055 10.4064 4.21052 10.084 4.06638C9.8201 3.94747 9.55228 3.8374 9.28102 3.73637C9.17941 3.69887 9.07633 3.66551 8.97202 3.63637C8.93292 3.6253 8.89318 3.61662 8.85302 3.61037L8.84402 3.61238C8.82402 3.61538 8.77102 3.62638 8.67202 3.65438C8.50651 3.70331 8.34244 3.757 8.18002 3.81537C7.79202 3.95237 7.31502 4.13737 6.84802 4.32437C6.29537 4.54572 5.74501 4.77273 5.19702 5.00538L5.08602 5.05238L5.04702 5.06937ZM4.39002 4.80637C4.33797 4.6845 4.33644 4.54695 4.38575 4.42394C4.43507 4.30094 4.5312 4.20254 4.65302 4.15038L4.85002 4.61038L5.04702 5.06937C4.98662 5.0953 4.9217 5.10906 4.85597 5.10987C4.79025 5.11069 4.72501 5.09853 4.66399 5.0741C4.60296 5.04967 4.54736 5.01345 4.50035 4.96752C4.45334 4.92158 4.41584 4.86682 4.39002 4.80637ZM2.48702 8.76638C2.53212 8.71863 2.58618 8.68023 2.64613 8.65338C2.70607 8.62653 2.77072 8.61176 2.83637 8.6099C2.90203 8.60804 2.96741 8.61914 3.02877 8.64256C3.09014 8.66597 3.14629 8.70125 3.19402 8.74638L2.85002 9.10938L2.50702 9.47338C2.45927 9.42827 2.42087 9.37421 2.39402 9.31426C2.36717 9.25432 2.3524 9.18967 2.35054 9.12402C2.34868 9.05836 2.35978 8.99299 2.3832 8.93162C2.40662 8.87025 2.44189 8.8141 2.48702 8.76638ZM7.05702 12.1534L9.82002 13.1894C10.0897 13.2904 10.3827 13.3117 10.6641 13.2507C10.9455 13.1897 11.2034 13.049 11.407 12.8454L13.497 10.7554C13.5909 10.6616 13.7182 10.609 13.8509 10.6091C13.9836 10.6092 14.1108 10.662 14.2045 10.7559C14.2983 10.8498 14.3509 10.977 14.3508 11.1097C14.3507 11.2424 14.2979 11.3696 14.204 11.4634L12.114 13.5534C11.7745 13.8925 11.3446 14.1268 10.8756 14.2282C10.4066 14.3296 9.91829 14.2939 9.46902 14.1254L6.64902 13.0684L6.62602 13.0574C6.47313 12.9729 6.32791 12.8752 6.19202 12.7654C6.03002 12.6404 5.84002 12.4854 5.63502 12.3104C5.17603 11.9179 4.7233 11.5182 4.27702 11.1114C3.73171 10.6161 3.19069 10.116 2.65402 9.61137L2.54502 9.50938L2.50702 9.47338L2.85002 9.10938L3.19402 8.74638L3.23102 8.78137L3.33802 8.88237C3.87056 9.38282 4.40724 9.87884 4.94802 10.3704C5.40802 10.7874 5.88302 11.2104 6.28102 11.5484C6.48102 11.7174 6.65802 11.8614 6.80102 11.9724C6.93302 12.0734 7.01602 12.1294 7.05702 12.1524M3.67002 14.2894C3.75502 14.188 3.87674 14.1245 4.0085 14.1127C4.14027 14.1008 4.27134 14.1417 4.37302 14.2264L5.33202 15.0264C5.54693 15.2058 5.80777 15.3215 6.08502 15.3604L7.32102 15.5344C7.38751 15.5417 7.45187 15.5622 7.51027 15.5948C7.56867 15.6275 7.61994 15.6715 7.66103 15.7242C7.70213 15.777 7.73221 15.8375 7.74951 15.9021C7.7668 15.9667 7.77095 16.0342 7.76172 16.1004C7.75248 16.1667 7.73005 16.2304 7.69574 16.2878C7.66144 16.3453 7.61595 16.3952 7.56199 16.4347C7.50803 16.4743 7.44669 16.5026 7.38159 16.518C7.31649 16.5334 7.24897 16.5355 7.18302 16.5244L5.94602 16.3514C5.4839 16.2865 5.04917 16.0935 4.69102 15.7944L3.73202 14.9944C3.68153 14.9523 3.63985 14.9006 3.60936 14.8424C3.57886 14.7841 3.56015 14.7204 3.5543 14.6549C3.54845 14.5895 3.55557 14.5235 3.57526 14.4607C3.59494 14.398 3.6268 14.3398 3.66902 14.2894" fill="black"/>
</svg>
