<svg width="20" height="20" viewBox="0 0 20 20" fill="none" xmlns="http://www.w3.org/2000/svg">
<path fill-rule="evenodd" clip-rule="evenodd" d="M3.64599 2.49071C3.40411 2.38199 3.12895 2.3738 2.88103 2.46794C2.63312 2.56208 2.43274 2.75084 2.32399 2.99271L0.160988 7.79571C0.0521435 8.03734 0.0436656 8.3123 0.137417 8.56018C0.231169 8.80805 0.419482 9.00858 0.660988 9.11771L2.15099 9.78871C2.27069 9.84276 2.39986 9.8727 2.53113 9.87682C2.6624 9.88095 2.7932 9.85917 2.91605 9.81274C3.03891 9.76631 3.15141 9.69613 3.24715 9.60622C3.34288 9.51631 3.41996 9.40841 3.47399 9.28871L5.63699 4.48471C5.74583 4.24307 5.75431 3.96812 5.66056 3.72024C5.56681 3.47236 5.37849 3.27183 5.13699 3.16271L3.64599 2.49071ZM1.87299 8.41871C1.95454 8.45548 2.04253 8.47582 2.13195 8.47859C2.22136 8.48135 2.31045 8.46647 2.39411 8.43481C2.47778 8.40315 2.55439 8.35531 2.61957 8.29404C2.68475 8.23277 2.73722 8.15926 2.77399 8.07771C2.81076 7.99616 2.83111 7.90816 2.83387 7.81875C2.83663 7.72933 2.82176 7.64025 2.79009 7.55658C2.75843 7.47292 2.71059 7.39631 2.64932 7.33113C2.58805 7.26595 2.51454 7.21348 2.43299 7.17671C2.26829 7.10245 2.08084 7.09665 1.91186 7.1606C1.74289 7.22455 1.60625 7.35301 1.53199 7.51771C1.45773 7.68241 1.45194 7.86986 1.51588 8.03883C1.57983 8.2078 1.70829 8.34445 1.87299 8.41871ZM19.015 9.24871C19.1378 9.2021 19.2502 9.13176 19.3458 9.04171C19.4414 8.95165 19.5183 8.84364 19.5722 8.72385C19.6261 8.60406 19.6558 8.47483 19.6597 8.34355C19.6636 8.21226 19.6416 8.08149 19.595 7.95871L17.73 3.03471C17.6835 2.91182 17.6132 2.79931 17.5232 2.70359C17.4332 2.60788 17.3252 2.53084 17.2054 2.47688C17.0856 2.42293 16.9563 2.39311 16.825 2.38913C16.6937 2.38515 16.5628 2.4071 16.44 2.45371L14.913 3.03271C14.7902 3.07931 14.6778 3.14965 14.5822 3.23971C14.4866 3.32976 14.4096 3.43777 14.3558 3.55756C14.3019 3.67736 14.2722 3.80658 14.2683 3.93787C14.2644 4.06915 14.2864 4.19992 14.333 4.32271L16.199 9.24771C16.2929 9.49565 16.4815 9.69613 16.7232 9.80508C16.9649 9.91403 17.24 9.92253 17.488 9.82871L19.015 9.24871ZM16.078 3.80371C15.9943 3.83542 15.9177 3.8833 15.8526 3.94461C15.7875 4.00593 15.735 4.07947 15.6983 4.16105C15.6616 4.24262 15.6413 4.33063 15.6386 4.42005C15.6358 4.50948 15.6508 4.59856 15.6825 4.68221C15.7142 4.76586 15.7621 4.84245 15.8234 4.90759C15.8847 4.97274 15.9583 5.02518 16.0398 5.0619C16.1214 5.09863 16.2094 5.11892 16.2988 5.12164C16.3883 5.12435 16.4773 5.10942 16.561 5.07771C16.7299 5.01366 16.8665 4.88512 16.9407 4.72037C17.0149 4.55562 17.0205 4.36815 16.9565 4.19921C16.8924 4.03026 16.7639 3.89368 16.5991 3.81951C16.4344 3.74534 16.2469 3.73966 16.078 3.80371Z" fill="black"/>
<path fill-rule="evenodd" clip-rule="evenodd" d="M14.8849 4.10632H14.8929C14.9583 4.1006 15.022 4.08205 15.0803 4.05172C15.1386 4.02139 15.1904 3.97988 15.2326 3.92955C15.2749 3.87922 15.3068 3.82106 15.3266 3.7584C15.3464 3.69573 15.3536 3.62978 15.3479 3.56432C15.3422 3.49885 15.3236 3.43515 15.2933 3.37686C15.263 3.31857 15.2214 3.26682 15.1711 3.22456C15.1208 3.18231 15.0626 3.15039 15 3.13062C14.9373 3.11084 14.8713 3.1036 14.8059 3.10932H14.7979L14.7719 3.11232L14.6749 3.12232L14.3219 3.15632C14.0249 3.18632 13.6139 3.23332 13.1599 3.29332C12.2649 3.41132 11.1559 3.59132 10.4299 3.83332C10.0779 3.95032 9.70589 4.17732 9.34989 4.43732C8.98889 4.70132 8.61489 5.02232 8.25689 5.35532C7.6215 5.9546 7.0145 6.58329 6.43789 7.23932C6.01889 7.71332 5.92189 8.46932 6.41389 9.00532C6.73389 9.35132 7.23389 9.78932 7.88189 9.98532C8.55889 10.1883 9.33889 10.1093 10.1359 9.51732L11.1349 8.87232L11.1529 8.86132C11.2959 8.94832 11.4949 9.09832 11.7329 9.29732C11.9929 9.51532 12.2749 9.77232 12.5379 10.0193C12.8364 10.3007 13.1298 10.5874 13.4179 10.8793L13.4729 10.9363L13.4869 10.9503L13.4919 10.9553L13.5509 11.0153L13.6259 11.0543C14.0289 11.2543 14.4719 11.1823 14.8159 11.0663C15.1739 10.9463 15.5299 10.7423 15.8329 10.5413C16.2123 10.286 16.5716 10.0022 16.9079 9.69232L16.9259 9.67632L16.9309 9.67132L16.9319 9.67032C16.9319 9.67032 16.8439 9.36032 16.4999 8.99832L16.2289 9.33832L15.9999 9.99932L13.4919 10.9553L13.9999 10.4993L13.7319 9.78232C13.5643 9.61723 13.3949 9.45389 13.2239 9.29232C12.9539 9.03832 12.6559 8.76732 12.3739 8.53232C12.1009 8.30232 11.8169 8.08432 11.5799 7.95432C11.1859 7.73832 10.7999 7.89832 10.5919 8.03332L9.56389 8.69732L9.54989 8.70732C8.99489 9.12332 8.53889 9.13932 8.16989 9.02832C7.76989 8.90832 7.41489 8.61632 7.14989 8.32832C7.06689 8.23832 7.04289 8.06532 7.18689 7.90232C7.74196 7.27037 8.32627 6.66471 8.93789 6.08732C9.27889 5.77032 9.62089 5.47732 9.93989 5.24432C10.2659 5.00632 10.5399 4.85132 10.7469 4.78232C11.3709 4.57432 12.3919 4.40332 13.2909 4.28432C13.7825 4.21972 14.2752 4.16404 14.7689 4.11732L14.8619 4.10832L14.8849 4.10632Z" fill="black"/>
<path d="M14.1269 10.1763C13.9963 10.0439 13.8647 9.91259 13.7319 9.78231L13.9999 10.4993L13.4919 10.9563L15.9999 9.99931L16.2289 9.33931L16.4999 8.99931L16.2449 8.94531L16.2419 8.94731L16.2279 8.96031L16.1739 9.01031C15.8925 9.26422 15.5935 9.49781 15.2789 9.70931C15.0089 9.88931 14.7359 10.0393 14.4959 10.1193C14.3099 10.1823 14.1939 10.1873 14.1269 10.1763Z" fill="black"/>
<path fill-rule="evenodd" clip-rule="evenodd" d="M5.04702 5.06742L4.85002 4.60742L4.65302 4.14742L4.69302 4.13142L4.80602 4.08342C5.36044 3.84802 5.91713 3.61801 6.47602 3.39342C6.92994 3.21027 7.38736 3.0359 7.84802 2.87042C8.05102 2.79842 8.24002 2.73642 8.39802 2.69142C8.53402 2.65142 8.70802 2.60742 8.85002 2.60742C8.98002 2.60742 9.11702 2.63742 9.23002 2.66742C9.35202 2.70042 9.48602 2.74442 9.62202 2.79442C9.89602 2.89442 10.205 3.02442 10.491 3.15042C10.8246 3.29949 11.1553 3.45485 11.483 3.61642L11.549 3.64842L11.567 3.65742L11.573 3.66042C11.6917 3.7197 11.782 3.82369 11.824 3.94953C11.866 4.07537 11.8563 4.21274 11.797 4.33142C11.7377 4.45011 11.6337 4.54038 11.5079 4.58239C11.3821 4.6244 11.2447 4.6147 11.126 4.55542L11.121 4.55242L11.105 4.54442L11.043 4.51442C10.7261 4.3586 10.4064 4.20857 10.084 4.06442C9.8201 3.94551 9.55228 3.83545 9.28102 3.73442C9.17941 3.69692 9.07633 3.66356 8.97202 3.63442C8.93292 3.62335 8.89318 3.61466 8.85302 3.60842L8.84402 3.61042C8.82402 3.61342 8.77102 3.62442 8.67202 3.65242C8.50651 3.70136 8.34244 3.75505 8.18002 3.81342C7.79202 3.95042 7.31502 4.13542 6.84802 4.32242C6.29537 4.54377 5.74501 4.77078 5.19702 5.00342L5.08602 5.05042L5.04702 5.06742ZM4.39002 4.80442C4.33797 4.68255 4.33644 4.545 4.38575 4.42199C4.43507 4.29899 4.5312 4.20059 4.65302 4.14842L4.85002 4.60842L5.04702 5.06742C4.98662 5.09335 4.9217 5.10711 4.85597 5.10792C4.79025 5.10873 4.72501 5.09658 4.66399 5.07215C4.60296 5.04772 4.54736 5.0115 4.50035 4.96556C4.45334 4.91962 4.41584 4.86486 4.39002 4.80442ZM2.48702 8.76442C2.53212 8.71667 2.58618 8.67828 2.64613 8.65143C2.70607 8.62458 2.77072 8.6098 2.83637 8.60795C2.90203 8.60609 2.96741 8.61719 3.02877 8.6406C3.09014 8.66402 3.14629 8.6993 3.19402 8.74442L2.85002 9.10742L2.50702 9.47142C2.45927 9.42632 2.42087 9.37225 2.39402 9.31231C2.36717 9.25237 2.3524 9.18772 2.35054 9.12207C2.34868 9.05641 2.35978 8.99103 2.3832 8.92967C2.40662 8.8683 2.44189 8.81215 2.48702 8.76442ZM7.05702 12.1514L9.82002 13.1874C10.0897 13.2885 10.3827 13.3097 10.6641 13.2487C10.9455 13.1877 11.2034 13.047 11.407 12.8434L13.497 10.7534C13.5909 10.6597 13.7182 10.6071 13.8509 10.6071C13.9836 10.6072 14.1108 10.66 14.2045 10.7539C14.2983 10.8478 14.3509 10.9751 14.3508 11.1078C14.3507 11.2405 14.2979 11.3677 14.204 11.4614L12.114 13.5514C11.7745 13.8906 11.3446 14.1248 10.8756 14.2262C10.4066 14.3277 9.91829 14.292 9.46902 14.1234L6.64902 13.0664L6.62602 13.0554C6.47313 12.9709 6.32791 12.8732 6.19202 12.7634C6.03002 12.6384 5.84002 12.4834 5.63502 12.3084C5.17603 11.916 4.7233 11.5163 4.27702 11.1094C3.73171 10.6141 3.19069 10.1141 2.65402 9.60942L2.54502 9.50742L2.50702 9.47142L2.85002 9.10742L3.19402 8.74442L3.23102 8.77942L3.33802 8.88042C3.87056 9.38087 4.40724 9.87689 4.94802 10.3684C5.40802 10.7854 5.88302 11.2084 6.28102 11.5464C6.48102 11.7154 6.65802 11.8594 6.80102 11.9704C6.93302 12.0714 7.01602 12.1274 7.05702 12.1504M3.67002 14.2874C3.75502 14.1861 3.87674 14.1225 4.0085 14.1107C4.14027 14.0989 4.27134 14.1398 4.37302 14.2244L5.33202 15.0244C5.54693 15.2038 5.80777 15.3195 6.08502 15.3584L7.32102 15.5324C7.38751 15.5397 7.45187 15.5603 7.51027 15.5929C7.56867 15.6255 7.61994 15.6695 7.66103 15.7223C7.70213 15.7751 7.73221 15.8356 7.74951 15.9002C7.7668 15.9648 7.77095 16.0322 7.76172 16.0985C7.75248 16.1647 7.73005 16.2284 7.69574 16.2859C7.66144 16.3433 7.61595 16.3933 7.56199 16.4328C7.50803 16.4723 7.44669 16.5006 7.38159 16.516C7.31649 16.5314 7.24897 16.5336 7.18302 16.5224L5.94602 16.3494C5.4839 16.2845 5.04917 16.0916 4.69102 15.7924L3.73202 14.9924C3.68153 14.9503 3.63985 14.8986 3.60936 14.8404C3.57886 14.7822 3.56015 14.7185 3.5543 14.653C3.54845 14.5875 3.55557 14.5215 3.57526 14.4588C3.59494 14.3961 3.6268 14.3378 3.66902 14.2874" fill="black"/>
<path d="M1.14993 1.87792C1.05353 1.78138 0.999418 1.6505 0.999512 1.51407C0.999606 1.37763 1.05389 1.24683 1.15043 1.15042C1.24697 1.05401 1.37785 0.999906 1.51429 1C1.65072 1.00009 1.78153 1.05438 1.87793 1.15092L18.8489 18.1219C18.9453 18.2183 18.9995 18.3491 18.9995 18.4854C18.9995 18.6218 18.9453 18.7525 18.8489 18.8489C18.7525 18.9453 18.6218 18.9995 18.4854 18.9995C18.3491 18.9995 18.2183 18.9453 18.1219 18.8489L1.14993 1.87792Z" fill="black"/>
</svg>
