<svg width="26" height="26" viewBox="0 0 26 26" fill="none" xmlns="http://www.w3.org/2000/svg">
<path fill-rule="evenodd" clip-rule="evenodd" d="M6.64599 5.49071C6.40411 5.38199 6.12895 5.3738 5.88103 5.46794C5.63311 5.56208 5.43274 5.75084 5.32399 5.99271L3.16099 10.7957C3.05214 11.0373 3.04367 11.3123 3.13742 11.5602C3.23117 11.8081 3.41948 12.0086 3.66099 12.1177L5.15099 12.7887C5.27069 12.8428 5.39986 12.8727 5.53113 12.8768C5.6624 12.8809 5.7932 12.8592 5.91605 12.8127C6.03891 12.7663 6.15141 12.6961 6.24714 12.6062C6.34288 12.5163 6.41996 12.4084 6.47399 12.2887L8.63699 7.48471C8.74583 7.24308 8.75431 6.96812 8.66056 6.72024C8.56681 6.47236 8.37849 6.27183 8.13699 6.16271L6.64599 5.49071ZM4.87299 11.4177C5.03769 11.492 5.22514 11.4978 5.39411 11.4338C5.56308 11.3699 5.69973 11.2414 5.77399 11.0767C5.84825 10.912 5.85404 10.7246 5.79009 10.5556C5.72614 10.3866 5.59769 10.25 5.43299 10.1757C5.26829 10.1014 5.08084 10.0957 4.91186 10.1596C4.74289 10.2236 4.60625 10.352 4.53199 10.5167C4.45773 10.6814 4.45194 10.8689 4.51588 11.0378C4.57983 11.2068 4.70829 11.3434 4.87299 11.4177ZM22.015 12.2487C22.1378 12.2021 22.2502 12.1318 22.3458 12.0417C22.4414 11.9517 22.5183 11.8436 22.5722 11.7239C22.6261 11.6041 22.6558 11.4748 22.6597 11.3435C22.6636 11.2123 22.6416 11.0815 22.595 10.9587L20.73 6.03471C20.6835 5.91182 20.6132 5.79931 20.5232 5.70359C20.4332 5.60788 20.3252 5.53084 20.2054 5.47688C20.0856 5.42293 19.9563 5.39311 19.825 5.38913C19.6937 5.38515 19.5628 5.4071 19.44 5.45371L17.913 6.03271C17.7902 6.07931 17.6778 6.14965 17.5822 6.23971C17.4866 6.32976 17.4096 6.43777 17.3558 6.55756C17.3019 6.67736 17.2722 6.80658 17.2683 6.93787C17.2644 7.06915 17.2864 7.19992 17.333 7.32271L19.199 12.2477C19.2929 12.4956 19.4815 12.6961 19.7232 12.8051C19.9649 12.914 20.24 12.9225 20.488 12.8287L22.015 12.2487ZM19.078 6.80371C18.9943 6.83542 18.9177 6.8833 18.8526 6.94461C18.7875 7.00593 18.735 7.07947 18.6983 7.16105C18.6616 7.24262 18.6413 7.33063 18.6386 7.42006C18.6358 7.50948 18.6508 7.59856 18.6825 7.68221C18.7142 7.76586 18.7621 7.84245 18.8234 7.90759C18.8847 7.97274 18.9583 8.02518 19.0398 8.0619C19.1214 8.09863 19.2094 8.11892 19.2988 8.12164C19.3883 8.12435 19.4773 8.10942 19.561 8.07771C19.7299 8.01366 19.8665 7.88512 19.9407 7.72037C20.0149 7.55562 20.0205 7.36815 19.9565 7.19921C19.8924 7.03026 19.7639 6.89368 19.5991 6.81951C19.4344 6.74534 19.2469 6.73966 19.078 6.80371Z" fill="black"/>
<path fill-rule="evenodd" clip-rule="evenodd" d="M17.8849 7.10632H17.8929C17.9584 7.1006 18.022 7.08205 18.0803 7.05172C18.1386 7.02139 18.1904 6.97988 18.2326 6.92955C18.2749 6.87922 18.3068 6.82106 18.3266 6.7584C18.3464 6.69573 18.3536 6.62978 18.3479 6.56432C18.3422 6.49885 18.3236 6.43515 18.2933 6.37686C18.263 6.31856 18.2214 6.26682 18.1711 6.22456C18.1208 6.18231 18.0626 6.15039 18 6.13062C17.9373 6.11084 17.8714 6.1036 17.8059 6.10932H17.7979L17.7719 6.11232L17.6759 6.12232L17.3219 6.15632C17.0249 6.18632 16.6139 6.23332 16.1599 6.29332C15.2649 6.41132 14.1559 6.59132 13.4299 6.83332C13.0779 6.95032 12.7059 7.17732 12.3499 7.43732C11.9889 7.70132 11.6149 8.02232 11.2569 8.35532C10.6215 8.95493 10.0145 9.58395 9.43789 10.2403C9.01889 10.7143 8.92189 11.4703 9.41389 12.0063C9.73389 12.3523 10.2339 12.7903 10.8819 12.9863C11.5589 13.1893 12.3389 13.1103 13.1359 12.5183L14.1349 11.8733L14.1529 11.8623C14.2959 11.9493 14.4949 12.0993 14.7329 12.2983C14.9929 12.5163 15.2749 12.7733 15.5379 13.0203C15.8364 13.3017 16.1298 13.5884 16.4179 13.8803L16.4729 13.9373L16.4869 13.9513L16.4919 13.9563L16.5509 14.0163L16.6259 14.0553C17.0289 14.2553 17.4719 14.1833 17.8159 14.0673C18.1739 13.9473 18.5299 13.7433 18.8329 13.5423C19.2123 13.287 19.5716 13.0032 19.9079 12.6933L19.9259 12.6773L19.9309 12.6723L19.9319 12.6713C19.9319 12.6713 19.8439 12.3613 19.4999 11.9993L19.2289 12.3393L18.9999 12.9993L16.4919 13.9563L16.9999 13.4993L16.7319 12.7823C16.5643 12.6172 16.3949 12.4539 16.2239 12.2923C15.9539 12.0383 15.6559 11.7673 15.3739 11.5323C15.1009 11.3023 14.8169 11.0843 14.5799 10.9543C14.1859 10.7383 13.7999 10.8983 13.5919 11.0333L12.5639 11.6973L12.5499 11.7073C11.9949 12.1233 11.5389 12.1393 11.1699 12.0283C10.7699 11.9083 10.4149 11.6163 10.1499 11.3283C10.0669 11.2383 10.0429 11.0653 10.1869 10.9023C10.7423 10.2703 11.3269 9.66469 11.9389 9.08732C12.2789 8.77032 12.6209 8.47732 12.9399 8.24432C13.2659 8.00632 13.5399 7.85132 13.7469 7.78232C14.3709 7.57432 15.3919 7.40332 16.2909 7.28432C16.7825 7.21972 17.2752 7.16404 17.7689 7.11732L17.8619 7.10832L17.8849 7.10632Z" fill="black"/>
<path d="M17.1269 13.1763C16.9963 13.0439 16.8647 12.9126 16.7319 12.7823L16.9999 13.4993L16.4919 13.9563L18.9999 12.9993L19.2289 12.3393L19.4999 11.9993L19.2449 11.9453L19.2419 11.9473L19.2279 11.9603L19.1739 12.0103C18.8925 12.2642 18.5935 12.4978 18.2789 12.7093C18.0089 12.8893 17.7359 13.0393 17.4959 13.1193C17.3099 13.1823 17.1939 13.1873 17.1269 13.1763Z" fill="black"/>
<path fill-rule="evenodd" clip-rule="evenodd" d="M8.04702 8.06742L7.85002 7.60742L7.65302 7.14742L7.69302 7.13142L7.80602 7.08342C8.36044 6.84802 8.91713 6.61801 9.47602 6.39342C9.92994 6.21027 10.3874 6.0359 10.848 5.87042C11.051 5.79842 11.24 5.73642 11.398 5.69142C11.534 5.65242 11.708 5.60742 11.85 5.60742C11.98 5.60742 12.117 5.63742 12.23 5.66742C12.352 5.70042 12.486 5.74442 12.622 5.79442C12.896 5.89442 13.205 6.02442 13.491 6.15042C13.8246 6.29949 14.1553 6.45485 14.483 6.61642L14.549 6.64842L14.567 6.65742L14.573 6.66042C14.6917 6.7197 14.782 6.82369 14.824 6.94953C14.866 7.07537 14.8563 7.21274 14.797 7.33142C14.7377 7.45011 14.6337 7.54038 14.5079 7.58239C14.3821 7.6244 14.2447 7.6147 14.126 7.55542L14.121 7.55242L14.105 7.54442L14.043 7.51442C13.7261 7.3586 13.4064 7.20857 13.084 7.06442C12.8201 6.94551 12.5523 6.83545 12.281 6.73442C12.1794 6.69692 12.0763 6.66356 11.972 6.63442C11.9329 6.62335 11.8932 6.61466 11.853 6.60842L11.844 6.61042C11.824 6.61342 11.771 6.62442 11.672 6.65242C11.5065 6.70136 11.3424 6.75505 11.18 6.81342C10.792 6.95042 10.315 7.13542 9.84802 7.32242C9.29537 7.54377 8.74501 7.77078 8.19702 8.00342L8.08602 8.05042L8.04702 8.06742ZM7.39002 7.80442C7.33797 7.68255 7.33644 7.545 7.38575 7.42199C7.43507 7.29899 7.5312 7.20059 7.65302 7.14842L7.85002 7.60842L8.04702 8.06742C7.98662 8.09335 7.9217 8.10711 7.85597 8.10792C7.79025 8.10873 7.72501 8.09658 7.66399 8.07215C7.60296 8.04772 7.54736 8.0115 7.50035 7.96556C7.45334 7.91962 7.41584 7.86487 7.39002 7.80442ZM5.48702 11.7644C5.53212 11.7167 5.58618 11.6783 5.64613 11.6514C5.70607 11.6246 5.77072 11.6098 5.83637 11.6079C5.90203 11.6061 5.96741 11.6172 6.02877 11.6406C6.09014 11.664 6.14629 11.6993 6.19402 11.7444L5.85002 12.1074L5.50702 12.4714C5.45927 12.4263 5.42087 12.3723 5.39402 12.3123C5.36717 12.2524 5.3524 12.1877 5.35054 12.1221C5.34868 12.0564 5.35978 11.991 5.3832 11.9297C5.40662 11.8683 5.44189 11.8122 5.48702 11.7644ZM10.057 15.1514L12.82 16.1874C13.0897 16.2885 13.3827 16.3097 13.6641 16.2487C13.9455 16.1877 14.2034 16.047 14.407 15.8434L16.497 13.7534C16.5909 13.6597 16.7182 13.6071 16.8509 13.6071C16.9836 13.6072 17.1108 13.66 17.2045 13.7539C17.2983 13.8478 17.3509 13.9751 17.3508 14.1078C17.3507 14.2405 17.2979 14.3677 17.204 14.4614L15.114 16.5514C14.7745 16.8906 14.3446 17.1248 13.8756 17.2262C13.4066 17.3277 12.9183 17.292 12.469 17.1234L9.64902 16.0664L9.62602 16.0554C9.47309 15.9706 9.32787 15.8726 9.19202 15.7624C9.03002 15.6384 8.84002 15.4824 8.63502 15.3084C8.17603 14.916 7.7233 14.5163 7.27702 14.1094C6.73171 13.6141 6.19069 13.1141 5.65402 12.6094L5.54502 12.5074L5.50702 12.4714L5.85002 12.1074L6.19402 11.7444L6.23102 11.7794L6.33802 11.8804C6.87056 12.3809 7.40724 12.8769 7.94802 13.3684C8.40802 13.7854 8.88302 14.2084 9.28102 14.5464C9.48102 14.7154 9.65802 14.8594 9.80102 14.9704C9.93302 15.0714 10.016 15.1274 10.057 15.1504M6.67002 17.2874C6.75502 17.1861 6.87674 17.1225 7.0085 17.1107C7.14027 17.0989 7.27134 17.1398 7.37302 17.2244L8.33202 18.0244C8.54693 18.2038 8.80777 18.3195 9.08502 18.3584L10.321 18.5324C10.3875 18.5397 10.4519 18.5603 10.5103 18.5929C10.5687 18.6255 10.6199 18.6695 10.661 18.7223C10.7021 18.7751 10.7322 18.8356 10.7495 18.9002C10.7668 18.9648 10.771 19.0322 10.7617 19.0985C10.7525 19.1647 10.73 19.2284 10.6957 19.2859C10.6614 19.3433 10.616 19.3933 10.562 19.4328C10.508 19.4723 10.4467 19.5006 10.3816 19.516C10.3165 19.5314 10.249 19.5336 10.183 19.5224L8.94602 19.3494C8.4839 19.2845 8.04917 19.0916 7.69102 18.7924L6.73202 17.9924C6.68153 17.9503 6.63985 17.8986 6.60936 17.8404C6.57886 17.7822 6.56015 17.7185 6.5543 17.653C6.54845 17.5875 6.55557 17.5215 6.57526 17.4588C6.59494 17.3961 6.6278 17.3378 6.67002 17.2874Z" fill="black"/>
<path fill-rule="evenodd" clip-rule="evenodd" d="M13 24.5C19.351 24.5 24.5 19.351 24.5 13C24.5 6.649 19.351 1.5 13 1.5C6.649 1.5 1.5 6.649 1.5 13C1.5 19.351 6.649 24.5 13 24.5ZM13 25.5C19.904 25.5 25.5 19.904 25.5 13C25.5 6.096 19.904 0.5 13 0.5C6.096 0.5 0.5 6.096 0.5 13C0.5 19.904 6.096 25.5 13 25.5Z" fill="black"/>
</svg>
