<svg width="16" height="16" viewBox="0 0 16 16" fill="none" xmlns="http://www.w3.org/2000/svg">
<path d="M1.99993 5.50043C1.99986 4.9203 2.14399 4.34926 2.41936 3.83865C2.69473 3.32804 3.0927 2.89389 3.57748 2.57525C4.06226 2.2566 4.61865 2.06345 5.19659 2.01317C5.77454 1.96289 6.35591 2.05706 6.88844 2.28721C7.42096 2.51735 7.88792 2.87626 8.24733 3.33164C8.60674 3.78702 8.84732 4.3246 8.94742 4.89603C9.04753 5.46745 9.00403 6.0548 8.82084 6.60524C8.63765 7.15569 8.3205 7.65196 7.89793 8.04943C8.69464 8.43623 9.38637 9.00937 9.91451 9.72029C10.4427 10.4312 10.7917 11.259 10.9319 12.1334C10.9474 12.2307 10.9435 12.3301 10.9205 12.4259C10.8975 12.5218 10.8559 12.6121 10.798 12.6918C10.7401 12.7715 10.6671 12.8391 10.5831 12.8906C10.4991 12.9421 10.4057 12.9765 10.3084 12.9919C10.2111 13.0074 10.1117 13.0035 10.0159 12.9805C9.92011 12.9575 9.82977 12.9159 9.75005 12.858C9.67033 12.8001 9.6028 12.7271 9.5513 12.6431C9.49981 12.5591 9.46536 12.4657 9.44993 12.3684C9.29994 11.4287 8.81986 10.5733 8.0959 9.95573C7.37193 9.33815 6.45152 8.99891 5.49993 8.99891C4.54834 8.99891 3.62793 9.33815 2.90396 9.95573C2.18 10.5733 1.69992 11.4287 1.54993 12.3684C1.53443 12.4657 1.49992 12.559 1.44837 12.643C1.39681 12.727 1.32922 12.8 1.24946 12.8578C1.16969 12.9157 1.07931 12.9573 0.983481 12.9802C0.887649 13.0031 0.78824 13.0069 0.69093 12.9914C0.593621 12.9759 0.500316 12.9414 0.416344 12.8899C0.332372 12.8383 0.259377 12.7707 0.201526 12.691C0.143675 12.6112 0.102101 12.5208 0.079179 12.425C0.0562567 12.3291 0.0524344 12.2297 0.0679304 12.1324C0.207703 11.258 0.556525 10.4303 1.08475 9.71966C1.61297 9.00898 2.30497 8.43635 3.10193 8.05043C2.75393 7.7231 2.47663 7.328 2.28711 6.88944C2.09759 6.45089 1.99985 5.97818 1.99993 5.50043ZM10.9999 4.00043C11.5809 4.00084 12.1493 4.16989 12.6361 4.48708C13.1229 4.80427 13.5072 5.25594 13.7423 5.78728C13.9773 6.31862 14.0531 6.90677 13.9604 7.48033C13.8677 8.0539 13.6104 8.58822 13.2199 9.01843C13.829 9.32013 14.3701 9.74283 14.8102 10.2607C15.2504 10.7786 15.5803 11.3807 15.7799 12.0304C15.8196 12.1565 15.8251 12.2908 15.7961 12.4197C15.767 12.5487 15.7044 12.6676 15.6145 12.7645C15.5246 12.8614 15.4107 12.9328 15.2844 12.9714C15.158 13.01 15.0236 13.0145 14.8949 12.9844C14.7663 12.9547 14.6477 12.8915 14.5513 12.8012C14.4549 12.711 14.3841 12.5969 14.3459 12.4704C14.1664 11.8908 13.8398 11.3676 13.3977 10.9518C12.9557 10.5361 12.4135 10.2421 11.8239 10.0984C11.6602 10.0589 11.5145 9.96538 11.4104 9.83295C11.3062 9.70053 11.2497 9.5369 11.2499 9.36843V9.01643C11.2498 8.8768 11.2887 8.73991 11.3622 8.62119C11.4357 8.50246 11.5409 8.40661 11.6659 8.34443C11.9691 8.19419 12.2126 7.94586 12.3568 7.63978C12.501 7.3337 12.5375 6.98786 12.4603 6.65842C12.3832 6.32898 12.1969 6.0353 11.9318 5.82508C11.6667 5.61486 11.3383 5.50045 10.9999 5.50043C10.801 5.50043 10.6103 5.42141 10.4696 5.28076C10.3289 5.14011 10.2499 4.94934 10.2499 4.75043C10.2499 4.55152 10.3289 4.36075 10.4696 4.2201C10.6103 4.07945 10.801 4.00043 10.9999 4.00043ZM5.49993 3.50043C5.23359 3.49441 4.96873 3.54166 4.72091 3.6394C4.47308 3.73715 4.24728 3.88342 4.05676 4.06963C3.86624 4.25585 3.71484 4.47825 3.61146 4.72378C3.50807 4.9693 3.45478 5.23301 3.45471 5.49942C3.45465 5.76583 3.50781 6.02956 3.61107 6.27514C3.71433 6.52072 3.86562 6.7432 4.05604 6.92951C4.24647 7.11581 4.4722 7.2622 4.71998 7.36007C4.96775 7.45794 5.23259 7.50532 5.49893 7.49943C6.02149 7.48788 6.51877 7.27221 6.8843 6.89859C7.24984 6.52498 7.45458 6.02311 7.45471 5.50042C7.45485 4.97773 7.25035 4.47576 6.885 4.10196C6.51965 3.72817 6.02249 3.51225 5.49993 3.50043Z" fill="currentColor"/>
</svg>
