<svg width="24" height="24" viewBox="0 0 24 24" fill="none" xmlns="http://www.w3.org/2000/svg">
<path d="M11.5 4C10.5717 4 9.6815 4.36875 9.02513 5.02513C8.36875 5.6815 8 6.57174 8 7.5C8 8.42826 8.36875 9.3185 9.02513 9.97487C9.6815 10.6313 10.5717 11 11.5 11C12.4283 11 13.3185 10.6313 13.9749 9.97487C14.6313 9.3185 15 8.42826 15 7.5C15 6.57174 14.6313 5.6815 13.9749 5.02513C13.3185 4.36875 12.4283 4 11.5 4ZM6 7.5C6 6.04131 6.57946 4.64236 7.61091 3.61091C8.64236 2.57946 10.0413 2 11.5 2C12.9587 2 14.3576 2.57946 15.3891 3.61091C16.4205 4.64236 17 6.04131 17 7.5C17 8.95869 16.4205 10.3576 15.3891 11.3891C14.3576 12.4205 12.9587 13 11.5 13C10.0413 13 8.64236 12.4205 7.61091 11.3891C6.57946 10.3576 6 8.95869 6 7.5ZM8 16C6.93913 16 5.92172 16.4214 5.17157 17.1716C4.42143 17.9217 4 18.9391 4 20H12.05V22H2V20C2 18.4087 2.63214 16.8826 3.75736 15.7574C4.88258 14.6321 6.4087 14 8 14H12V16H8ZM19.5 12.75V14.126C20.215 14.31 20.852 14.686 21.354 15.198L22.547 14.509L23.547 16.241L22.355 16.929C22.5497 17.6297 22.5497 18.3703 22.355 19.071L23.547 19.759L22.547 21.491L21.354 20.802C20.8449 21.3212 20.2039 21.6918 19.5 21.874V23.25H17.5V21.874C16.7961 21.6918 16.1551 21.3212 15.646 20.802L14.453 21.491L13.453 19.759L14.645 19.071C14.4503 18.3703 14.4503 17.6297 14.645 16.929L13.453 16.241L14.453 14.509L15.646 15.197C16.1552 14.6782 16.7962 14.3079 17.5 14.126V12.75H19.5ZM16.749 17.033C16.5852 17.329 16.4992 17.6617 16.499 18C16.499 18.35 16.59 18.68 16.749 18.967L16.785 19.03C16.9627 19.3262 17.214 19.5713 17.5146 19.7414C17.8151 19.9116 18.1546 20.001 18.5 20.001C18.8454 20.001 19.1849 19.9116 19.4854 19.7414C19.786 19.5713 20.0373 19.3262 20.215 19.03L20.251 18.967C20.41 18.68 20.5 18.351 20.5 18C20.5 17.65 20.41 17.32 20.251 17.033L20.215 16.97C20.0373 16.6738 19.786 16.4287 19.4854 16.2586C19.1849 16.0884 18.8454 15.999 18.5 15.999C18.1546 15.999 17.8151 16.0884 17.5146 16.2586C17.214 16.4287 16.9627 16.6738 16.785 16.97L16.749 17.033Z" fill="currentColor"/>
</svg>
