<svg width="24" height="24" viewBox="0 0 24 24" fill="none" xmlns="http://www.w3.org/2000/svg">
<path d="M8.13798 8.38972V12.3897M6.13798 10.3897H10.138M16.031 3.88672H7.96998C6.58572 3.88698 5.25825 4.43706 4.27953 5.41597C3.3008 6.39489 2.75098 7.72246 2.75098 9.10672V17.3717C2.75098 19.4467 5.28398 20.4567 6.71298 18.9527L9.68898 15.8187H14.313L17.188 19.2787C18.562 20.9327 21.251 19.9607 21.251 17.8117V9.10572C21.2507 7.72164 20.7008 6.39432 19.7221 5.41562C18.7434 4.43693 17.4151 3.88698 16.031 3.88672Z" stroke="black" stroke-width="1.5" stroke-linecap="round" stroke-linejoin="round"/>
<path d="M14.6621 10.3896C15.2144 10.3896 15.6621 9.94193 15.6621 9.38965C15.6621 8.83736 15.2144 8.38965 14.6621 8.38965C14.1098 8.38965 13.6621 8.83736 13.6621 9.38965C13.6621 9.94193 14.1098 10.3896 14.6621 10.3896Z" fill="black"/>
<path d="M16.8623 12.5898C17.4146 12.5898 17.8623 12.1421 17.8623 11.5898C17.8623 11.0376 17.4146 10.5898 16.8623 10.5898C16.31 10.5898 15.8623 11.0376 15.8623 11.5898C15.8623 12.1421 16.31 12.5898 16.8623 12.5898Z" fill="black"/>
</svg>
