<svg width="26" height="26" viewBox="0 0 26 26" fill="none" xmlns="http://www.w3.org/2000/svg">
<path d="M9.99952 0.188477C8.71084 0.188083 7.4347 0.441602 6.24402 0.934549C5.05334 1.4275 3.97145 2.15021 3.06016 3.06141C2.14887 3.9726 1.42605 5.05441 0.932978 6.24505C0.43991 7.43568 0.186261 8.71179 0.186524 10.0005C0.18613 11.2892 0.439681 12.5655 0.932691 13.7562C1.4257 14.947 2.14851 16.0289 3.05981 16.9402C3.97111 17.8515 5.05304 18.5743 6.24379 19.0673C7.43453 19.5603 8.71075 19.8139 9.99952 19.8135C12.2895 19.8135 14.3925 19.0025 16.0625 17.6885L16.9375 18.5635C16.7579 18.9126 16.6942 19.3099 16.7559 19.6977C16.8176 20.0854 17.0014 20.4434 17.2805 20.7195L21.8745 25.3445C22.5875 26.0585 23.7545 26.0585 24.4685 25.3445L25.3435 24.4695C25.6861 24.1247 25.8784 23.6585 25.8784 23.1725C25.8784 22.6865 25.6861 22.2202 25.3435 21.8755L20.7185 17.2815C20.4408 17.0037 20.0807 16.8231 19.6919 16.7669C19.3031 16.7107 18.9066 16.7817 18.5615 16.9695L17.6865 16.0945C18.8319 14.6491 19.5467 12.9103 19.7491 11.0773C19.9515 9.24432 19.6332 7.3914 18.8308 5.73101C18.0284 4.07061 16.7743 2.66996 15.2123 1.68966C13.6503 0.709348 11.8437 0.18907 9.99952 0.188477ZM9.99952 2.00048C12.1213 2.00048 14.1561 2.84333 15.6564 4.34362C17.1567 5.84391 17.9995 7.87874 17.9995 10.0005C17.9995 12.1222 17.1567 14.157 15.6564 15.6573C14.1561 17.1576 12.1213 18.0005 9.99952 18.0005C7.87779 18.0005 5.84296 17.1576 4.34267 15.6573C2.84238 14.157 1.99952 12.1222 1.99952 10.0005C1.99952 7.87874 2.84238 5.84391 4.34267 4.34362C5.84296 2.84333 7.87779 2.00048 9.99952 2.00048ZM4.93652 7.46948C4.40335 8.33347 4.12212 9.32922 4.12452 10.3445C4.12334 11.063 4.26399 11.7747 4.53841 12.4388C4.81284 13.1028 5.21563 13.7062 5.72371 14.2143C6.23179 14.7224 6.83516 15.1252 7.49923 15.3996C8.16329 15.674 8.87499 15.8147 9.59352 15.8135C10.7233 15.8122 11.8252 15.463 12.7495 14.8135C12.5002 14.8369 12.2499 14.8469 11.9995 14.8435C11.0714 14.8459 10.152 14.6648 9.29406 14.3108C8.43613 13.9567 7.65661 13.4366 7.00029 12.7804C6.34397 12.1242 5.82378 11.3447 5.46961 10.4869C5.11545 9.62899 4.93428 8.70959 4.93652 7.78148C4.93652 7.67748 4.93152 7.57348 4.93652 7.46948Z" fill="black"/>
</svg>
