<svg width="28" height="28" viewBox="0 0 28 28" fill="none" xmlns="http://www.w3.org/2000/svg">
<path d="M13 24.7257C13.7905 24.7257 14.3605 24.1442 14.3605 23.3652V4.81867C14.3605 4.03967 13.7905 3.38867 12.977 3.38867C12.407 3.38867 12.0235 3.64417 11.407 4.22567L6.279 9.07467C6.19451 9.14528 6.08706 9.18246 5.977 9.17917H2.523C0.884 9.17917 0 10.0742 0 11.8187V16.3302C0 18.0747 0.8835 18.9702 2.5235 18.9702H5.977C6.093 18.9702 6.1975 19.0052 6.279 19.0747L11.407 23.9697C11.965 24.4932 12.43 24.7257 13 24.7257ZM24.2445 22.3537C24.6975 22.6557 25.256 22.5397 25.5815 22.0747C27.1165 19.9347 28 17.0862 28 14.1097C28 11.1212 27.128 8.27217 25.5815 6.13267C25.2445 5.67917 24.6975 5.56267 24.2445 5.86517C23.8025 6.16767 23.7325 6.73717 24.0815 7.23717C25.349 9.09767 26.128 11.5397 26.128 14.1092C26.128 16.6792 25.372 19.1442 24.0695 20.9817C23.7445 21.4817 23.8025 22.0517 24.2445 22.3537ZM19.6045 19.2137C20 19.4932 20.5695 19.4002 20.907 18.9467C21.814 17.7257 22.3605 15.9347 22.3605 14.1092C22.3605 12.2842 21.8025 10.5047 20.907 9.26067C20.57 8.80717 20.012 8.71417 19.6045 8.99317C19.093 9.33017 19.0345 9.92317 19.407 10.4347C20.0815 11.3417 20.4885 12.7257 20.4885 14.1097C20.4885 15.4937 20.0585 16.8767 19.3955 17.7952C19.0465 18.2952 19.1045 18.8652 19.6045 19.2142" fill="currentColor"/>
</svg>
