<svg width="24" height="24" viewBox="0 0 24 24" fill="none" xmlns="http://www.w3.org/2000/svg">
<path d="M10.788 3.10186C11.283 2.09886 12.714 2.09886 13.209 3.10186L15.567 7.87986L20.84 8.64586C21.947 8.80586 22.389 10.1679 21.588 10.9489L17.772 14.6679L18.673 19.9179C18.863 21.0219 17.705 21.8629 16.714 21.3419L11.998 18.8619L7.28303 21.3419C6.29303 21.8619 5.13503 21.0219 5.32303 19.9189L6.22403 14.6679L2.40903 10.9479C1.60803 10.1679 2.05003 8.80686 3.15703 8.64586L8.43003 7.87986L10.788 3.10186ZM11.998 4.03886L9.74003 8.61386C9.64327 8.81017 9.50023 8.98001 9.32323 9.10875C9.14624 9.23749 8.9406 9.32126 8.72403 9.35286L3.67403 10.0869L7.32803 13.6489C7.64603 13.9589 7.79103 14.4059 7.71603 14.8439L6.85403 19.8729L11.37 17.4979C11.5638 17.3959 11.7795 17.3426 11.9985 17.3426C12.2175 17.3426 12.4332 17.3959 12.627 17.4979L17.143 19.8729L16.281 14.8429C16.2442 14.6273 16.2602 14.406 16.3278 14.198C16.3954 13.99 16.5125 13.8016 16.669 13.6489L20.323 10.0869L15.273 9.35286C15.0565 9.32126 14.8508 9.23749 14.6738 9.10875C14.4968 8.98001 14.3538 8.81017 14.257 8.61386L11.998 4.03886Z" fill="currentColor"/>
</svg>
