<svg width="16" height="16" viewBox="0 0 16 16" fill="none" xmlns="http://www.w3.org/2000/svg">
<path fill-rule="evenodd" clip-rule="evenodd" d="M7.83602 6L8.59602 3.973L9.33602 2H5.50002C5.35719 2.00069 5.21779 2.04384 5.09955 2.12397C4.98131 2.2041 4.88958 2.31759 4.83602 2.45L2.51302 8.257C2.50223 8.28384 2.49819 8.31292 2.50124 8.34169C2.50429 8.37046 2.51435 8.39804 2.53054 8.42202C2.54672 8.446 2.56854 8.46564 2.59407 8.47924C2.61961 8.49283 2.64809 8.49996 2.67702 8.5H7.64202L6.91002 10.513L5.82802 13.488C5.79822 13.5706 5.79777 13.6609 5.82675 13.7438C5.85573 13.8266 5.91236 13.897 5.98713 13.943C6.0619 13.989 6.15023 14.0079 6.23726 13.9964C6.3243 13.9849 6.40473 13.9438 6.46502 13.88L13.421 6.489C13.4599 6.4478 13.4858 6.39612 13.4957 6.34033C13.5055 6.28455 13.4988 6.22711 13.4763 6.17511C13.4539 6.1231 13.4167 6.0788 13.3694 6.04769C13.3221 6.01657 13.2667 5.99999 13.21 6H7.83602ZM10.562 3L10.797 2.373C10.8757 2.16335 10.9024 1.93775 10.8749 1.71552C10.8473 1.49329 10.7663 1.28105 10.6389 1.09695C10.5114 0.912849 10.3412 0.76238 10.1429 0.658419C9.94452 0.554458 9.72395 0.500101 9.50002 0.5H5.50002C4.59402 0.5 3.78002 1.052 3.44302 1.893L1.12002 7.7C1.0182 7.95446 0.980299 8.22999 1.00963 8.50249C1.03897 8.77499 1.13464 9.03614 1.28828 9.2631C1.44192 9.49006 1.64885 9.6759 1.89095 9.80437C2.13305 9.93283 2.40294 10 2.67702 10H5.50002L4.95502 11.5L4.41802 12.975C4.26954 13.3823 4.26622 13.8283 4.40862 14.2378C4.55103 14.6473 4.83042 14.995 5.19958 15.2222C5.56875 15.4495 6.00505 15.5424 6.43476 15.4851C6.86447 15.4278 7.26124 15.224 7.55802 14.908L14.514 7.517C14.7536 7.26253 14.9134 6.9435 14.9738 6.59926C15.0342 6.25502 14.9925 5.90064 14.8538 5.57983C14.7152 5.25901 14.4856 4.98581 14.1935 4.79393C13.9014 4.60204 13.5595 4.49986 13.21 4.5H10L10.562 3Z" fill="black"/>
</svg>
