<svg width="24" height="24" viewBox="0 0 24 24" fill="none" xmlns="http://www.w3.org/2000/svg">
<path d="M4.5 18.749V5.94902C4.5 4.82902 4.5 4.26902 4.718 3.84102C4.90974 3.46472 5.21569 3.15877 5.592 2.96702C6.02 2.74902 6.58 2.74902 7.7 2.74902H16.3C17.42 2.74902 17.98 2.74902 18.408 2.96702C18.7843 3.15877 19.0903 3.46472 19.282 3.84102C19.5 4.26802 19.5 4.82802 19.5 5.94902V10.25M4.5 18.749C4.5 19.216 4.5 19.449 4.539 19.644C4.61636 20.0311 4.80653 20.3866 5.08555 20.6658C5.36458 20.945 5.71998 21.1354 6.107 21.213C6.302 21.252 6.536 21.252 7.003 21.252H10.25M4.5 18.749H9.25M8.96 9.25002H15.04C15.376 9.25002 15.544 9.25002 15.672 9.18502C15.7853 9.12743 15.8774 9.03533 15.935 8.92202C16 8.79402 16 8.62602 16 8.29002V7.21002C16 6.87402 16 6.70602 15.935 6.57802C15.8774 6.46471 15.7853 6.37262 15.672 6.31502C15.544 6.25002 15.376 6.25002 15.04 6.25002H8.96C8.624 6.25002 8.456 6.25002 8.328 6.31502C8.21469 6.37262 8.12259 6.46471 8.065 6.57802C8 6.70602 8 6.87402 8 7.21002V8.29002C8 8.62602 8 8.79402 8.065 8.92202C8.12259 9.03533 8.21469 9.12743 8.328 9.18502C8.456 9.25002 8.624 9.25002 8.96 9.25002Z" stroke="currentColor" stroke-width="1.5" stroke-linecap="round" stroke-linejoin="round"/>
<path fill-rule="evenodd" clip-rule="evenodd" d="M17.5 23C18.9587 23 20.3576 22.4205 21.3891 21.3891C22.4205 20.3576 23 18.9587 23 17.5C23 16.0413 22.4205 14.6424 21.3891 13.6109C20.3576 12.5795 18.9587 12 17.5 12C16.0413 12 14.6424 12.5795 13.6109 13.6109C12.5795 14.6424 12 16.0413 12 17.5C12 18.9587 12.5795 20.3576 13.6109 21.3891C14.6424 22.4205 16.0413 23 17.5 23ZM17.5 14.007C17.6326 14.007 17.7598 14.0597 17.8536 14.1534C17.9473 14.2472 18 14.3744 18 14.507V17H20.493C20.6256 17 20.7528 17.0527 20.8466 17.1464C20.9403 17.2402 20.993 17.3674 20.993 17.5C20.993 17.6326 20.9403 17.7598 20.8466 17.8536C20.7528 17.9473 20.6256 18 20.493 18H18V20.493C18 20.6256 17.9473 20.7528 17.8536 20.8466C17.7598 20.9403 17.6326 20.993 17.5 20.993C17.3674 20.993 17.2402 20.9403 17.1464 20.8466C17.0527 20.7528 17 20.6256 17 20.493V18H14.507C14.3744 18 14.2472 17.9473 14.1534 17.8536C14.0597 17.7598 14.007 17.6326 14.007 17.5C14.007 17.3674 14.0597 17.2402 14.1534 17.1464C14.2472 17.0527 14.3744 17 14.507 17H17V14.507C17 14.3744 17.0527 14.2472 17.1464 14.1534C17.2402 14.0597 17.3674 14.007 17.5 14.007Z" fill="currentColor"/>
</svg>
